# xmcd
#
# Track frame offsets: 
#        150
#        17914
#        30796
#        46598
#        65662
#        80181
#        98715
#        114719
#        131592
#        146302
#
# Disc length: 2155 seconds
#
# Revision: 0
# Processed by: cddbd v1.5.2PL0 Copyright (c) Steve Scherf et al.
# Submitted via: ExactAudioCopy v0.99pb4
#
DISCID=7d08690a
DTITLE=Cook and Glenn - Country, Soul and Rock-N-Roll
DYEAR=2006
DGENRE=Country
TTITLE0=30 Year Old Songs
TTITLE1=Blue Rain
TTITLE2=You Only Call Me When You're Drunk
TTITLE3=Shining Star
TTITLE4=Too Much Like The Truth
TTITLE5=Hello Daddy
TTITLE6=I've Never Been
TTITLE7=Somewhere Under The Rainbow
TTITLE8=China Grove
TTITLE9=Hickory Dickory Dock (with Hank Williams Jr.)
EXTD=
EXTT0=
EXTT1=
EXTT2=
EXTT3=
EXTT4=
EXTT5=
EXTT6=
EXTT7=
EXTT8=
EXTT9=
PLAYORDER=
